<svg width="180" height="26" viewBox="0 0 180 26" fill="none" xmlns="http://www.w3.org/2000/svg">
<g clip-path="url(#clip0_98_1251)">
<path d="M24.7057 0.305972V12.9638C24.7057 15.8837 23.746 18.575 22.1306 20.7245C21.0955 22.1035 19.789 23.2617 18.2942 24.1117C18.151 24.1939 18.0078 24.2709 17.8621 24.348C16.1863 25.216 14.2945 25.709 12.2871 25.7193C12.267 25.7193 12.2469 25.7193 12.2268 25.7193H11.9731C9.74213 25.7193 7.65436 25.1004 5.86054 24.0218C2.29801 21.8775 -0.09375 17.9176 -0.09375 13.385V12.7199C-0.09375 8.17445 2.2955 4.19912 5.86054 2.03683C6.08414 1.90073 6.31276 1.77232 6.5439 1.65163C8.16939 0.804174 10.0034 0.321382 11.948 0.303406C11.9831 0.303406 12.0183 0.303406 12.051 0.303406H24.7057V0.305972Z" fill="#7E9ACF"/>
<path d="M12.2879 0.305972V25.7193C12.2678 25.7193 12.2477 25.7193 12.2276 25.7193H11.9739C9.74292 25.7193 7.65515 25.1004 5.86133 24.0218V2.03683C6.08493 1.90073 6.31355 1.77232 6.54469 1.65163C8.17019 0.804174 10.0042 0.321382 11.9488 0.303406C11.9839 0.303406 12.0191 0.303406 12.0518 0.303406H12.2879V0.305972Z" fill="#78C7CE"/>
<path d="M22.131 20.727C21.0959 22.106 19.7895 23.2642 18.2947 24.1142C18.1515 24.1964 18.0082 24.2735 17.8625 24.3505L12.2876 13.1693L6.54688 1.65416C8.17237 0.806707 10.0064 0.323915 11.951 0.305939L12.2876 0.978768L18.2947 13.028L22.131 20.727Z" fill="#84CEBF"/>
<path d="M24.7065 0.305972V12.9638C24.7065 15.8837 23.7467 18.575 22.1313 20.7245C21.0962 22.1035 19.7898 23.2617 18.2949 24.1117V0.303406H24.7065V0.305972Z" fill="#78C7CE"/>
<path d="M49.2371 19.323H46.5635L40.5095 9.97438V19.323H37.8359V5.67853H40.5095L46.5635 15.0468V5.67853H49.2371V19.323Z" fill="#0B2239"/>
<path d="M61.6318 14.7372H53.8971C53.9597 15.5187 54.2289 16.1306 54.7002 16.573C55.1714 17.0153 55.7509 17.2365 56.4385 17.2365C57.4315 17.2365 58.1383 16.8015 58.5591 15.9291H61.4418C61.1365 16.9711 60.5498 17.8263 59.6843 18.4948C58.8187 19.1657 57.756 19.4999 56.4962 19.4999C55.4768 19.4999 54.5631 19.2689 53.7553 18.8069C52.9474 18.3449 52.3175 17.6912 51.8655 16.8458C51.4135 16.0004 51.1875 15.0247 51.1875 13.9188C51.1875 12.8006 51.4111 11.8175 51.8559 10.9721C52.3007 10.1267 52.9258 9.47548 53.7264 9.02082C54.5295 8.56617 55.4503 8.33762 56.4962 8.33762C57.5012 8.33762 58.4028 8.55879 59.1986 9.00116C59.9944 9.44352 60.6123 10.0727 61.0499 10.8837C61.4899 11.6971 61.7087 12.631 61.7087 13.6853C61.7063 14.0736 61.6823 14.425 61.6318 14.7372ZM58.939 12.9013C58.9269 12.1985 58.6769 11.6357 58.1936 11.213C57.7104 10.7903 57.1189 10.5789 56.4168 10.5789C55.7557 10.5789 55.1979 10.7829 54.7459 11.1933C54.2938 11.6037 54.0174 12.1714 53.914 12.9013H58.939Z" fill="#0B2239"/>
<path d="M78.3198 8.50958L75.2255 19.323H72.3427L70.4145 11.7683L68.4863 19.323H65.5843L62.4707 8.50958H65.1827L67.0533 16.7474L69.0777 8.50958H71.9028L73.8887 16.7277L75.7592 8.50958H78.3198Z" fill="#0B2239"/>
<path d="M82.8848 10.7559V15.9881C82.8848 16.3518 82.9713 16.6148 83.142 16.7794C83.3127 16.9441 83.6036 17.0227 84.01 17.0227H85.2506V19.3255H83.57C81.3172 19.3255 80.1895 18.2073 80.1895 15.9684V10.7559H78.9297V8.51211H80.1895V5.83826H82.8824V8.51211H85.2506V10.7559H82.8848Z" fill="#0B2239"/>
<path d="M89.1276 18.8068C88.3125 18.3448 87.673 17.6911 87.209 16.8457C86.7449 16.0003 86.5117 15.0246 86.5117 13.9187C86.5117 12.8128 86.7497 11.8371 87.2282 10.9917C87.7067 10.1463 88.3582 9.49261 89.1853 9.03059C90.0124 8.56856 90.9356 8.33755 91.955 8.33755C92.9745 8.33755 93.8953 8.56856 94.7248 9.03059C95.5519 9.49261 96.2058 10.1463 96.6819 10.9917C97.1603 11.8371 97.3984 12.8128 97.3984 13.9187C97.3984 15.0246 97.1531 16.0003 96.6627 16.8457C96.1722 17.6911 95.511 18.3448 94.6767 18.8068C93.8424 19.2689 92.9095 19.4999 91.8781 19.4999C90.8587 19.4999 89.9426 19.2689 89.1276 18.8068ZM93.2437 16.7572C93.6693 16.5164 94.0107 16.1551 94.2656 15.6734C94.5204 15.1917 94.6479 14.6068 94.6479 13.9163C94.6479 12.889 94.3834 12.0977 93.8544 11.5447C93.3255 10.9917 92.6811 10.714 91.9166 10.714C91.152 10.714 90.5125 10.9917 89.9979 11.5447C89.4834 12.0977 89.2238 12.889 89.2238 13.9163C89.2238 14.9435 89.4738 15.7349 89.9787 16.2878C90.4812 16.8408 91.1159 17.1185 91.8781 17.1185C92.3614 17.1185 92.8158 16.9981 93.2437 16.7572Z" fill="#0B2239"/>
<path d="M108.279 9.57378C109.056 10.3872 109.443 11.5226 109.443 12.98V19.323H106.769V13.3511C106.769 12.4909 106.56 11.8323 106.139 11.3703C105.719 10.9082 105.147 10.6772 104.42 10.6772C103.682 10.6772 103.1 10.9082 102.672 11.3703C102.247 11.8323 102.033 12.4934 102.033 13.3511V19.323H99.3594V8.50964H102.033V9.8564C102.389 9.387 102.846 9.02081 103.399 8.75294C103.952 8.48752 104.56 8.35236 105.221 8.35236C106.486 8.35481 107.503 8.76032 108.279 9.57378Z" fill="#0B2239"/>
<path d="M118.599 18.9789C117.904 18.6545 117.358 18.1998 116.959 17.6174C116.562 17.0349 116.351 16.3861 116.324 15.6685H117.793C117.861 16.3591 118.156 16.9637 118.688 17.4847C119.217 18.0057 119.991 18.2662 121.013 18.2662C121.953 18.2662 122.698 18.0204 123.246 17.5264C123.794 17.0325 124.071 16.4058 124.071 15.6489C124.071 15.0394 123.919 14.5503 123.614 14.1768C123.309 13.8057 122.931 13.528 122.482 13.3436C122.032 13.1618 121.409 12.9603 120.613 12.744C119.685 12.4884 118.952 12.2353 118.409 11.992C117.865 11.7487 117.401 11.3702 117.019 10.8541C116.634 10.3405 116.442 9.64252 116.442 8.76271C116.442 8.03281 116.627 7.37909 116.997 6.80402C117.368 6.22894 117.892 5.77921 118.567 5.4548C119.243 5.1304 120.017 4.9682 120.892 4.9682C122.176 4.9682 123.213 5.29015 124.001 5.93158C124.79 6.57546 125.242 7.40367 125.362 8.41865H123.852C123.758 7.8362 123.448 7.32011 122.919 6.86545C122.39 6.41326 121.674 6.18471 120.775 6.18471C119.94 6.18471 119.245 6.4108 118.69 6.86545C118.135 7.32011 117.856 7.93942 117.856 8.72339C117.856 9.31812 118.007 9.79981 118.313 10.166C118.618 10.5322 118.998 10.8099 119.455 10.9991C119.911 11.1883 120.529 11.3923 121.311 11.6086C122.21 11.8666 122.938 12.1198 123.496 12.3704C124.052 12.6211 124.523 13.0045 124.908 13.5181C125.292 14.0318 125.485 14.7223 125.485 15.5899C125.485 16.2534 125.311 16.8826 124.968 17.4773C124.624 18.072 124.114 18.5537 123.439 18.9199C122.763 19.2861 121.955 19.4679 121.015 19.4679C120.099 19.4655 119.294 19.3033 118.599 18.9789Z" fill="#0B2239"/>
<path d="M128.203 10.7658C128.653 9.90567 129.275 9.24212 130.069 8.77518C130.862 8.30824 131.771 8.07477 132.79 8.07477C134.127 8.07477 135.231 8.41392 136.096 9.08975C136.964 9.76559 137.522 10.6872 137.774 11.8496H136.284C136.099 11.0509 135.697 10.4242 135.082 9.97202C134.466 9.51983 133.702 9.29127 132.788 9.29127C132.059 9.29127 131.405 9.46084 130.821 9.79999C130.239 10.1391 129.778 10.6429 129.441 11.3114C129.105 11.9823 128.934 12.8032 128.934 13.7788C128.934 14.7545 129.102 15.5802 129.441 16.2561C129.78 16.9319 130.239 17.4406 130.821 17.7798C131.403 18.1189 132.059 18.2885 132.788 18.2885C133.702 18.2885 134.466 18.0624 135.082 17.6077C135.697 17.1555 136.099 16.5215 136.284 15.7105H137.774C137.522 16.8484 136.959 17.7601 136.087 18.4507C135.214 19.1413 134.113 19.4853 132.79 19.4853C131.771 19.4853 130.864 19.2519 130.069 18.7849C129.275 18.318 128.653 17.6544 128.203 16.7943C127.753 15.9341 127.527 14.929 127.527 13.7788C127.527 12.6311 127.753 11.626 128.203 10.7658Z" fill="#0B2239"/>
<path d="M147.715 8.56379C148.372 8.91522 148.886 9.45344 149.264 10.1784C149.641 10.9034 149.829 11.7857 149.829 12.8277V19.3231H148.458V12.9899C148.458 11.7857 148.162 10.8641 147.573 10.23C146.984 9.59352 146.179 9.27649 145.159 9.27649C144.114 9.27649 143.279 9.61563 142.657 10.2915C142.034 10.9673 141.724 11.9626 141.724 13.275V19.3256H140.334V4.30234H141.724V10.1293C142.067 9.46572 142.575 8.95209 143.243 8.58591C143.912 8.21973 144.664 8.03787 145.498 8.03787C146.323 8.03541 147.061 8.21235 147.715 8.56379Z" fill="#0B2239"/>
<path d="M154.906 18.7848C154.091 18.3179 153.449 17.6543 152.98 16.7942C152.509 15.934 152.275 14.9289 152.275 13.7787C152.275 12.6286 152.513 11.6234 152.989 10.7633C153.466 9.90311 154.115 9.23956 154.937 8.77262C155.757 8.30568 156.678 8.0722 157.697 8.0722C158.716 8.0722 159.64 8.30568 160.467 8.77262C161.294 9.23956 161.943 9.90311 162.414 10.7633C162.883 11.6234 163.119 12.6286 163.119 13.7787C163.119 14.9166 162.881 15.9168 162.405 16.7843C161.929 17.6519 161.272 18.3179 160.438 18.7848C159.604 19.2518 158.676 19.4852 157.656 19.4852C156.637 19.4852 155.721 19.2518 154.906 18.7848ZM159.642 17.7502C160.25 17.4184 160.743 16.9171 161.121 16.2486C161.498 15.5777 161.686 14.7568 161.686 13.7812C161.686 12.808 161.501 11.9847 161.13 11.3138C160.76 10.6428 160.27 10.144 159.661 9.81218C159.053 9.48041 158.39 9.31574 157.675 9.31574C156.961 9.31574 156.298 9.48041 155.689 9.81218C155.081 10.144 154.593 10.6453 154.23 11.3138C153.865 11.9847 153.684 12.8055 153.684 13.7812C153.684 14.7568 153.867 15.5777 154.23 16.2486C154.593 16.9195 155.076 17.4184 155.68 17.7502C156.283 18.082 156.942 18.2466 157.656 18.2466C158.37 18.2466 159.034 18.082 159.642 17.7502Z" fill="#0B2239"/>
<path d="M167.656 18.7848C166.841 18.3179 166.199 17.6543 165.73 16.7942C165.259 15.934 165.025 14.9289 165.025 13.7787C165.025 12.6286 165.263 11.6234 165.739 10.7633C166.216 9.90311 166.865 9.23956 167.687 8.77262C168.507 8.30568 169.428 8.0722 170.447 8.0722C171.466 8.0722 172.39 8.30568 173.217 8.77262C174.044 9.23956 174.693 9.90311 175.164 10.7633C175.633 11.6234 175.869 12.6286 175.869 13.7787C175.869 14.9166 175.631 15.9168 175.155 16.7843C174.679 17.6519 174.022 18.3179 173.188 18.7848C172.354 19.2518 171.426 19.4852 170.406 19.4852C169.387 19.4852 168.471 19.2518 167.656 18.7848ZM172.395 17.7502C173.003 17.4184 173.496 16.9171 173.873 16.2486C174.251 15.5777 174.438 14.7568 174.438 13.7812C174.438 12.808 174.253 11.9847 173.883 11.3138C173.513 10.6428 173.022 10.144 172.414 9.81218C171.805 9.48041 171.142 9.31574 170.428 9.31574C169.714 9.31574 169.05 9.48041 168.442 9.81218C167.834 10.144 167.346 10.6453 166.982 11.3138C166.617 11.9847 166.437 12.8055 166.437 13.7812C166.437 14.7568 166.619 15.5777 166.982 16.2486C167.346 16.9195 167.829 17.4184 168.432 17.7502C169.036 18.082 169.695 18.2466 170.409 18.2466C171.123 18.2466 171.784 18.082 172.395 17.7502Z" fill="#0B2239"/>
<path d="M179.802 4.2998V19.323H178.412V4.2998H179.802Z" fill="#0B2239"/>
</g>
<defs>
<clipPath id="clip0_98_1251">
<rect width="180" height="26" fill="white"/>
</clipPath>
</defs>
</svg>
